<svg width="53.45106" height="52.65" xmlns="http://www.w3.org/2000/svg">
 <title>logo-dot</title>

 <g>
  <title>background</title>
  <rect fill="none" id="canvas_background" height="402" width="582" y="-1" x="-1"/>
 </g>
 <g>
  <title>Layer 1</title>
  <path id="svg_1" fill="#ff5037" fill-rule="evenodd" d="m33.01566,51.54342c-0.50712,-0.11972 -1.2226,-0.46191 -1.44867,-0.268c-3.5348,3.35222 -7.3932,-0.63434 -11.0867,0.55486c-0.954,0.31091 -2.35386,-0.47443 -3.4488,-0.964a36.13824,36.13824 0 0 1 -13.27479,-10.34711a8.39519,8.39519 0 0 1 -1.62687,-3.27449c-0.80683,-3.61753 -1.51606,-7.27711 -2.08524,-10.94384a8.14,8.14 0 0 1 0.44684,-3.63633c1.77316,-5.13286 3.34507,-10.3774 7.215,-14.45331a8.39006,8.39006 0 0 0 1.6579,-2.42482a3.66219,3.66219 0 0 1 3.94352,-2.48646c2.22531,0.01876 2.69609,-3.63812 5.38066,-3.27449c2.165,0.31093 4.5987,1.61089 6.46938,1.01942c3.96213,-1.27583 6.347,2.323 9.65576,2.34709c2.06041,0.00983 3.41157,1.67346 5.58191,1.64574c2.55691,-0.00626 2.65443,0.47173 2.76436,3.74711c0.02394,1.51887 0.55058,2.36585 1.94428,2.63746c2.17744,0.42525 3.54721,1.53941 3.69349,3.91867a1.24541,1.24541 0 0 0 0.20747,0.70227c6.67773,5.76542 4.09688,13.25787 3.2041,20.09811c-0.73232,5.66 -5.17232,9.43749 -9.61764,12.52168a16.84816,16.84816 0 0 1 -9.576,2.88047"/>
  <text style="cursor: move;" font-style="italic" font-weight="bold" xml:space="preserve" text-anchor="start" font-family="Oswald, sans-serif" font-size="24" id="svg_2" y="36.02563" x="14.274475" stroke-width="0" stroke="#000" fill="#ffffff">IE</text>
 </g>
</svg>